<?xml version="1.0" encoding="UTF-8"?>
<svg id="Layer_2" data-name="Layer 2" xmlns="http://www.w3.org/2000/svg" viewBox="0 0 399.02 398.77">
  <defs>
    <style>
      .cls-1 {
        fill: #070507;
      }

      .cls-1, .cls-2 {
        stroke-width: 0px;
      }

      .cls-2 {
        fill: #cfed66;
      }
    </style>
  </defs>
  <g id="Layer_1-2" data-name="Layer 1">
    <g>
      <path class="cls-1" d="m103.11,194.8c0,7-.26,14.01.07,20.99.4,8.46-3.7,13.75-10.83,17.4-7.41,3.79-15.5,5.67-23.32,8.27-3.18,1.05-4.11,2.4-3.86,5.63,2.02,26.47,10.76,50.4,26.64,71.7,3.88,5.2,7.76,10.4,12.5,14.87,2.37,2.23,4.23,3.16,6.31-.78,2.99-5.67,6.51-11.09,10.15-16.38,3.97-5.77,9.82-8.1,16.74-8.09,16.16.03,32.32-.17,48.47.07,12.26.18,19.99,8.25,20.26,20.48.8,36.87-32.49,69.72-69.32,69.82-37.17.1-69.11-12.43-95.41-38.07-23.37-22.78-37.95-50.47-40.41-83.71-1.17-15.8-1.59-31.64-.29-47.39,2.12-25.5,14.74-45.3,35.2-60.3,14.03-10.29,30.13-14.28,47.18-15.1,10.76-.52,19.91,8.41,19.93,19.11.01,7.16,0,14.33,0,21.49Zm-38.85,5.31c0-8.5-.16-17,.08-25.49.1-3.66-.93-4.36-4.21-3.04-22.53,9.05-37.52,25.02-44.48,48.34-3.05,10.22-2.02,20.8-2.25,31.24-.33,15.33.18,30.68,4.39,45.49,13.95,49.15,56.3,83.33,107.09,88.38,31.85,3.17,52.87-12.72,62.5-32.8,1.92-4,1.46-4.91-3.01-4.87-19.82.18-39.65.33-59.47-.08-5.98-.12-9.94,1.18-11.65,7.16-.93,3.25-2.6,2.56-4.6.88-21.69-18.1-38.55-39.76-48.38-66.45-5.43-14.75-7.53-30.17-8.36-45.82-.53-9.95-.85-10.15,8.57-12.94,3.27-.97,3.94-2.46,3.86-5.53-.21-8.16-.07-16.32-.07-24.49Zm94.95,133.97c9.97,0,19.95-.1,29.91.06,2.82.04,3.69-.77,3.63-3.62-.16-7.15-1.54-8.71-8.76-8.73-14.46-.02-28.93.33-43.37-.16-6.83-.23-10.35,3.07-13.24,8.37-1.61,2.95-1.69,4.25,2.41,4.15,9.8-.24,19.61-.08,29.42-.08Zm-81.93-138.08c0,8.33-.04,16.65.05,24.98.01,1.07-.92,2.75,1.33,3.08,4.9.72,11.06-4.5,11.07-9.54.02-12.82.02-25.64,0-38.47,0-7.23-1.51-8.54-8.83-8.6-2.73-.02-3.76.62-3.69,3.56.2,8.32.07,16.65.07,24.98Z"/>
      <path class="cls-1" d="m290.04,295.78c0,7.16.13,13.6-.06,20.03-.08,2.88.76,3.4,3.43,2.62,11.27-3.27,20.5-9.92,28.87-17.73,17.42-16.23,24.92-36.77,25.01-60.25.09-27.15.11-54.31-.08-81.46-.03-4.02,1.12-5.06,5.02-4.95,8.45.25,8.46.04,8.46,8.28,0,25.82-.12,51.64.03,77.46.16,28.08-9.63,52.11-29.93,71.31-13.98,13.22-30.91,21.34-50.2,24.15-3.32.48-4.17-.54-3.97-3.59.18-2.79.04-5.6.04-9.69-11.85,8.64-23.19,16.12-33.37,25.46,10.19,7.69,20.14,15.16,30.04,22.7,2.3,1.75,3.49,1.79,3.34-1.55-.07-1.66.1-3.34-.03-4.99-.21-2.62,1-3.31,3.48-3.59,38.57-4.45,68.36-23.11,88.78-56.09,10.55-17.04,15.85-35.83,16.47-56.03.86-28.14.46-56.27.58-84.41.03-5.99-.08-11.98-.38-17.96-.17-3.5,1.23-4.67,4.63-4.75,8.64-.21,8.64-.33,8.64,8.12,0,31.32-.19,62.64.05,93.95.27,35.73-12.46,66.41-36.99,91.73-17.92,18.5-39.93,31.1-65.5,36.23-5.38,1.08-6.94,2.98-6.47,8.18.49,5.45.07,10.99.12,16.48.03,2.86-.8,3.26-3.13,1.52-20.46-15.36-40.99-30.63-61.44-46.01-4.67-3.51-4.7-3.85-.04-7.31,20.84-15.52,41.1-31.81,62.53-46.53.49-.34.99-.65,2.06-1.34Z"/>
      <path class="cls-2" d="m391.12,34.99c-.96,1.02-2.03,2.28-3.23,3.41-2.68,2.53-4.85,5.38-3.29,9.2,1.55,3.8,5.37,3.95,8.58,3.58,4.87-.55,5.96,1.36,5.83,5.83-.28,9.48-.25,18.99,0,28.47.1,3.82-1.2,5.2-4.87,4.69-.98-.14-2.01-.11-2.99.02-2.67.35-5.38.78-6.51,3.76-1.13,2.98-.19,5.47,1.87,7.77,5.01,5.6,5,5.65-.22,10.82-6.63,6.56-13.34,13.03-19.91,19.64-1.8,1.81-3.02,2.19-4.66-.14-1.03-1.47-2.45-2.77-3.93-3.79-4.17-2.85-8.78-.91-9.91,4.03-.07.32-.03.69-.15.99-1.06,2.63.98,6.35-1.4,7.99-2.53,1.74-6.15.55-9.28.59-8.16.09-16.32-.07-24.48.08-3.05.05-4.15-1.1-4.11-4.08.06-3.92.96-8.69-3.7-10.47-4.64-1.78-7.82,1.78-10.52,4.98-1.8,2.13-3.03,1.89-4.78.08-7.64-7.89-15.33-15.75-23.08-23.53-1.79-1.8-1.4-3,.33-4.44,1.26-1.05,2.45-2.25,3.46-3.55,3.54-4.56,1.78-9.29-3.81-10.44-.33-.07-.65-.15-.98-.2q-8.17-1.12-8.17-9.3c0-8.16.15-16.32-.07-24.48-.1-3.67.62-5.86,4.83-5.15.16.03.33,0,.5,0,3.68-.16,7.86.02,9.25-4.25,1.32-4.06-1.57-7.25-4.45-9.31-3.25-2.34-2.65-3.6-.25-5.96,7.25-7.11,14.37-14.36,21.38-21.7,2.34-2.45,4.16-2.9,6.45-.12,1.05,1.27,2.31,2.45,3.7,3.31,4.85,3,9.42.53,9.75-5.17Q308.77.05,317.11.05c8.83,0,17.65.09,26.48-.05,2.8-.04,3.85.87,3.76,3.71-.12,3.78-.66,8.21,3.53,10.14,4.96,2.28,8.05-1.52,11-4.71,1.74-1.88,3.11-2.59,5.24-.33,7.42,7.87,15,15.59,22.51,23.38.67.7,1.52,1.32,1.49,2.8Zm-17.85,35.02c-.44-24.38-20.97-44.5-45.01-44.09-25.15.42-45.51,20.64-45.04,44.7.52,26.21,20.96,45.84,47.11,45.23,23.47-.55,43.37-21.8,42.94-45.84Z"/>
      <path class="cls-1" d="m219.14,154.14c24.82,0,49.63-.01,74.45,0,17.43.01,28.44,10.97,28.44,28.25,0,20.15-.4,40.32.13,60.45.41,15.95-13.64,27.67-27.37,27.44-30.64-.51-61.29-.1-91.93-.24-3.65-.02-5.3.81-5.69,4.68-.35,3.43-1.63,6.77-2.63,10.12-2.05,6.82-7.08,10.84-13.7,11.08-6.43.23-11.8-3.19-14.27-9.68-1.53-4.02-2.56-8.25-3.47-12.46-.58-2.7-1.51-3.92-4.56-3.73-4.98.31-10.01-.25-14.98.15-14.85,1.2-27.37-10.18-27.85-25.76-.65-21.13-.78-42.32,0-63.44.64-17.3,11.78-26.86,28.99-26.86,24.82,0,49.63,0,74.45,0Zm-.23,13.37c-24.97,0-49.95-.04-74.92.02-9.85.03-14.74,4.22-14.93,14.07-.4,20.64-.42,41.29-.14,61.93.12,8.62,5.52,13.27,14.15,13.38,8.32.1,16.65.17,24.97-.05,3.17-.08,4.83.71,5.55,3.99,1.36,6.16,3.07,12.24,4.69,18.34.34,1.27.75,2.91,2.35,2.78,1.25-.1,1.39-1.67,1.67-2.78,1.49-5.8,3.25-11.55,4.37-17.42.73-3.8,2.24-4.96,6.19-4.93,33.3.18,66.6.12,99.9.09,11.91-.01,15.87-4,15.88-15.91.03-18.98.01-37.96,0-56.94,0-12.75-3.88-16.56-16.83-16.57-24.31,0-48.62,0-72.93,0Z"/>
      <path class="cls-1" d="m207.97,12.46c10.99,0,21.99.11,32.98-.07,3.12-.05,3.87.91,3.86,3.95-.03,9.56.11,9.54-9.2,9.48-21.82-.15-43.66-1.12-65.42,1.13-57.73,5.97-97.83,35.98-120.46,89.28-4.76,11.22-6.6,23.36-9.32,35.19-.86,3.73-2.01,4.92-5.95,3.76-8.36-2.46-8.39-2.24-6.27-10.97,4.56-18.79,9.35-37.54,19.34-54.34,15.59-26.22,36.75-46.45,64.12-60.46,20.5-10.49,42.28-14.72,64.85-16.25,10.47-.71,20.96-1.24,31.46-.7Z"/>
      <path class="cls-1" d="m203.45,51.5c13.28,0,25.11.13,36.93-.08,3.56-.06,4.49,1.04,4.44,4.5-.13,8.64.04,8.61-8.71,8.65-20.14.1-40.33-.52-60.43.52-40.83,2.1-78.1,30.2-89.77,71.21-.65,2.27-.55,6.16-2.98,6.28-3.65.18-7.5-1.15-11.03-2.47-1.65-.62-.27-2.74.08-4.05,4.16-15.76,11.48-29.89,21.75-42.58,18.87-23.31,43.54-36.48,72.76-41.13,12.65-2.01,25.59-.71,36.96-.84Z"/>
      <path class="cls-1" d="m373.27,70.01c.43,24.04-19.47,45.29-42.94,45.84-26.15.61-46.59-19.02-47.11-45.23-.47-24.06,19.89-44.27,45.04-44.7,24.03-.41,44.56,19.71,45.01,44.09Zm-44.32-30.96c-22.09-.3-32.66,18.23-32.71,31.94-.07,17.29,14.89,31.99,32.39,31.98,16.02-.01,31.36-15.38,31.5-31.56.15-17.59-14.05-32.33-31.18-32.36Z"/>
      <path class="cls-1" d="m160.67,244.49c-5.33,0-10.66-.1-15.99.04-2.45.06-3.55-.46-3.51-3.25.15-10.82.13-21.65.01-32.48-.03-2.44.75-3.12,3.12-3.06,6.16.15,12.33-.1,18.49.11,3.11.11,4.39-.58,4.36-4.06-.07-8.62.12-8.63-8.73-8.63-4.5,0-9.01-.24-13.49.08-3.28.23-3.78-1.04-3.77-3.96.03-9.48-.09-9.48,9.15-9.48,8.83,0,17.66.1,26.48-.05,3.26-.06,4.39,1.09,4.34,4.35-.15,10.16-.12,20.32-.02,30.48.03,3.2-1.13,4.42-4.42,4.3-5.82-.22-11.66.06-17.49-.11-2.78-.08-4.1.28-4.06,3.66.08,8.68-.12,8.68,8.48,8.68,4.5,0,9,.07,13.49-.02,2.99-.06,4.35,1.17,3.96,4.19-.02.16,0,.33,0,.5-.13,9.19,1.4,8.71-8.42,8.72-4,0-8,0-11.99,0Z"/>
      <path class="cls-1" d="m192.69,199.64c0-5.49.07-10.98-.03-16.46-.04-2.19.39-3.16,2.96-3.29,11.14-.58,11.13-.68,11.13,10.56,0,3.82.16,7.66-.05,11.47-.17,3.08.96,4.26,4,3.9,1.48-.18,3-.16,4.48,0,2.47.27,3.27-.8,3.04-3.14-.14-1.48.14-3.01-.06-4.48-.57-4.28,1.03-5.79,5.48-5.88,8.73-.18,8.96-.46,8.64,8.4-.15,4.09.84,5.87,5.09,5.1.97-.18,2.01.1,2.99-.05,3.47-.52,4.52.85,4.46,4.36-.14,8.69.03,8.85-8.85,8.77-3.11-.03-3.96.79-3.83,3.87.26,5.98-.12,11.98.15,17.95.16,3.42-1.11,4.16-4.28,4.17-9.82.01-9.82.14-9.82-9.68,0-4.32-.16-8.65.06-12.97.13-2.65-.75-3.39-3.34-3.31-6.15.18-12.31-.13-18.45.13-3.19.14-3.96-.96-3.83-3.95.23-5.14.06-10.31.06-15.46Z"/>
      <path class="cls-1" d="m257.19,224.49c0-5.33.11-10.65-.05-15.97-.07-2.43.77-3.03,3.12-3.14,9.8-.44,9.93-.53,10.04,9.1.03,2.95,1.02,3.87,3.73,3.49.65-.09,1.33-.01,1.99-.01,6.97,0,7.26-.01,6.87-7.13-.24-4.4.99-6.2,5.44-5.41.97.17,2.01.15,2.99,0,3.82-.59,5.1.76,4.97,4.8-.32,9.97-.26,19.97-.02,29.95.09,3.51-.93,4.47-4.41,4.41-8.65-.16-8.83.02-8.77-8.88.02-3.23-1.07-3.8-3.99-3.8-8.57.02-8.8-.1-8.63,8.45.08,3.85-1.51,4.24-4.69,4.2-8.61-.11-8.61.01-8.61-8.59,0-3.83,0-7.65,0-11.48Z"/>
      <path class="cls-1" d="m328.74,90.2c-11.74-.13-20.19-8.85-20.08-20.72.08-9.13,9.39-18.29,18.43-18.16,11.87.18,20.64,8.15,20.41,18.57-.25,11.73-8.29,20.42-18.77,20.3Zm-6.57-19.61c-.27,3.27,2.38,5.98,6.19,6.11,3.5.12,5.51-1.73,5.79-5.2.29-3.6-1.21-6.12-4.96-6.7-3.73-.58-6.7,1.97-7.02,5.79Z"/>
    </g>
  </g>
</svg>