<?xml version="1.0" encoding="UTF-8"?>
<svg id="Layer_2" data-name="Layer 2" xmlns="http://www.w3.org/2000/svg" viewBox="0 0 397.24 398.38">
  <defs>
    <style>
      .cls-1 {
        fill: #ceec66;
      }

      .cls-1, .cls-2 {
        stroke-width: 0px;
      }

      .cls-2 {
        fill: #040304;
      }
    </style>
  </defs>
  <g id="Layer_1-2" data-name="Layer 1">
    <g>
      <path class="cls-2" d="m368.67,176.39c-.24,6.22,1.86,12.11,2.34,18.2,3.69,46.78-7.42,89.52-35.34,127.4-29.66,40.25-69.36,65.27-118.62,73.52-57.7,9.66-109.32-5.17-153.67-43.31-32.79-28.2-53.9-64.05-60.58-106.7C-8.27,174.77,13.35,115.16,68.45,68.55c15.74-13.31,33.21-23.83,52.93-30.29,4.13-1.35,6.8-3.14,7.25-8.4.84-9.85,8.74-16.17,18.37-16.02,10.28.16,18.31,6.97,19.46,16.5,1.13,9.38-4.89,18.88-13.72,21.27-5.34,1.45-10.64.87-15.32-2.15-2.24-1.45-4.15-1.63-6.51-.74C67.81,72.41,27.81,116.37,15.86,183.24c-14.81,82.85,30.83,164.15,113.83,192.28,63.33,21.46,122.16,8.68,172.41-36.21,39.12-34.95,56.74-79.87,56.26-132.03-.12-12.33-2.03-24.53-4.98-36.53-.32-1.28-.67-2.6-1.27-3.76-2.2-4.3-6.17-5.17-9.98-2.3-4.25,3.21-9.99,5.57-12.35,9.82-2.36,4.25,1.19,10.02,1.83,15.17,6.63,52.84-8.99,97.78-48.67,133.48-23.23,20.9-50.67,33.2-82.21,35.8-62.27,5.13-109.19-20.36-142.29-72.09-13.09-20.47-19.02-43.54-19.96-68.11-2.2-57.61,22.98-100.72,69.73-131.92,25.2-16.82,53.89-22.8,84.16-21.72,17.87.64,35.15,3.7,50.99,12.07,8.74,4.62,17.29,4.28,26.52,3.08,5.44-.71,7.66-3.1,9.95-7.89,16.03-33.41,41.64-55.9,77.55-66.08,7.83-2.22,15.81-3.89,23.66-6.06,2.06-.57,2.76-.25,3.61,1.69,16.85,38.63,17.24,77.03-1.52,115.15-1.47,2.99-1.45,5.46-.17,8.46,4.24,9.92,8.23,19.95,12.28,29.95,1.33,3.29,1.83,6.69,1.54,10.26-.98,12.02-12.77,18.42-23.42,12.67-1.42-.77-2.59-2.12-4.7-2.05Zm13.83-132.67c-.14-9.07-3.06-17.51-5.88-25.98-.91-2.72-2.64-2.31-4.69-1.84-9.2,2.1-18.04,5.19-26.61,9.12-2.85.39-5.31,1.72-7.78,3.08-16.82,9.23-30.27,22.05-40.22,38.41-9.62,15.81-15.1,32.95-15.32,51.6-.03,5.49.02,10.97-.13,16.46-.06,2.1.64,3.29,2.58,4.23,13.28,6.44,26.51,12.96,39.72,19.54,1.65.82,2.94,1.1,4.49-.19,3.81-3.17,8.18-5.67,11.22-9.72,5.07-1.09,8.27-4.87,11.44-8.42,18.83-21.05,30.97-45.24,33.02-73.73.54-7.48,1.99-15.3-1.84-22.55Zm-147.43,44.02c-12.71-5.14-25.52-8.33-38.95-9.13-3.55-.21-4.18,1.04-4.11,4.18.18,8.33.06,16.66.06,24.99,0,8.65,0,8.43-8.54,8.65-3.73.1-4.31-1.25-4.24-4.54.21-9.66-.13-19.33.18-28.98.13-4.09-1.43-4.76-4.93-4.34-11.92,1.43-23.7,3.53-34.93,7.92-14.47,5.66-27.96,13.11-40.2,22.74-3.03,2.39-3.83,4.28-.41,7.33,5.84,5.21,11.21,10.92,16.79,16.42,7.28,7.18,7.2,7.09-.42,14.01-2.06,1.87-3.12,1.44-4.79-.28-4.52-4.66-9.11-9.27-13.86-13.7-3.49-3.26-6.55-9.5-10.5-9.08-4.28.45-6.89,6.66-9.75,10.74-13.81,19.73-22.21,41.49-24.56,65.55-.41,4.23.14,6.33,5.28,6.01,7.97-.5,15.99-.13,23.98-.13,8.64,0,8.44,0,8.59,8.64.06,3.46-1.12,4.16-4.25,4.11-9.83-.16-19.66.07-29.49-.13-3.29-.07-4.35.84-4.09,4.2,1.13,14.39,4.74,28.15,9.93,41.56,1.55,4,3.99,5.73,8.65,5.71,46.31-.19,92.63-.12,138.94-.12,8.32,0,8.05.01,8.38,8.3.17,4.17-1.33,4.82-5.04,4.8-24.82-.15-49.65-.08-74.47-.08-20.32,0-40.65-.02-60.97.04-1.53,0-3.7-1-4.5.77-.72,1.6,1.08,3,2.03,4.27,2.79,3.73,5.6,7.46,8.68,10.95,33.83,38.24,76.05,53.51,126.39,45.11,35.59-5.94,63.12-25.27,84.81-53.53,1.59-2.08,4.58-4.56,3.65-6.64-1.02-2.28-4.75-.89-7.26-.92-9.88-.13-9.75-.05-9.46-9.88.08-2.8,1.12-3.31,3.55-3.23,4.33.14,8.66.04,12.99.04,8.91,0,9.21-.11,12.32-8.31,11.38-29.98,12.54-60.31,2.95-90.98-.62-1.97-1.51-3.54-3.53-4.52-12.7-6.14-25.31-12.46-38.07-18.48-2.14-1.01-3.1-1.89-3.02-4.28.17-4.83-.16-9.67.12-14.49.19-3.21-1.03-4.79-3.94-5.86-7.78-2.87-15.5-5.91-23.21-8.98-10.12-4.03-15.65-15.78-6.79-26.42Zm121.45,65.23c7.86,4.66,15.27,9.04,22.68,13.45,1.19.71,2.48,1.4,3.7.55,1.27-.88,1.02-2.51.63-3.7-3.12-9.54-6.45-19.01-11.62-28.51-4.28,7.22-10.13,12.19-15.39,18.21Zm-88.15-59.29c-6.4.8-13.83,1.7-21.24,2.7-1.55.21-2.83,1.17-3.27,2.72-.35,1.22.8,1.76,1.68,2.12,7.07,2.88,14.18,5.66,21.25,8.55,1.96.8,2.68.23,2.97-1.78.56-3.95,1.28-7.87,1.98-11.8.35-1.95.27-3.4-3.36-2.51Zm-121.04-54.49c3.66-.47,6.34-2.13,6.28-6.21-.06-3.99-2.53-6.07-6.38-6.04-3.81.03-6.36,2.03-6.33,6.07.03,4.02,2.6,5.79,6.43,6.18Z"/>
      <path class="cls-2" d="m268.86,32.12c-.08,11.81-8.26,20.38-19.29,20.22-10.92-.16-18.95-8.95-18.88-20.65.06-9.28,8.74-17.97,17.82-17.85,12.29.16,20.42,7.47,20.35,18.28Zm-20.31-5.05c-2.83.32-5,2.25-4.9,6.06.09,3.8,2.38,5.71,6.04,5.84,3.8.13,6.62-2.55,6.36-6.06-.3-3.97-2.7-5.87-7.49-5.83Z"/>
      <path class="cls-2" d="m217.71,32.22c-.28,11.83-8.5,20.33-19.45,20.12-10.92-.21-19.12-9.22-18.88-20.74.2-9.49,8.79-17.99,17.92-17.74,12.4.35,20.66,7.78,20.41,18.37Zm-12.88.62c-.19-3.92-2.69-5.49-6.18-5.75-3.55-.26-6.46,2.56-6.35,6.06.12,3.88,2.67,5.59,6.12,5.87,3.43.27,6.43-2.82,6.41-6.18Z"/>
      <path class="cls-1" d="m282,118.12c.22-18.65,5.7-35.79,15.32-51.6,9.95-16.35,23.4-29.18,40.22-38.41,2.47-1.35,4.94-2.69,7.78-3.08,12.39,6.23,24.79,12.46,37.18,18.7,3.83,7.24,2.38,15.06,1.84,22.55-2.06,28.49-14.19,52.68-33.02,73.73-3.17,3.55-6.37,7.33-11.44,8.42-18.98-10.7-38.57-20.23-57.88-30.31Zm51.99-52.95c-15.07.01-26.38,11.1-26.33,25.8.05,13.96,11.35,25.14,25.45,25.18,14.14.03,25.27-10.74,25.35-24.54.1-15.1-10.41-26.45-24.48-26.44Z"/>
      <path class="cls-2" d="m235.38,291.5c-3.02-1.34-6.21-2.41-9.01-4.12-2.03-1.24-.57-3.19.18-4.79,6.7-14.26,13.37-28.53,20.12-42.77,11.15-23.54,22.45-47,33.45-70.62,1.88-4.04,3.7-5.25,7.46-2.54,1.06.77,2.31,1.34,3.56,1.78,2.83,1,2.74,2.52,1.57,4.98-7.42,15.57-14.63,31.23-22.01,46.82-10.85,22.94-21.78,45.85-32.66,68.78-.55,1.16-.58,2.77-2.65,2.48Z"/>
      <path class="cls-2" d="m312.74,184.04c-1.33,3.36-2.57,6.96-4.16,10.41-10.24,22.26-20.52,44.5-30.93,66.69-.79,1.69-.74,4.79-3.79,4.43-3.69-.44-7.06-2.2-9.77-4.55-1.12-.97.53-3.34,1.23-4.91,4.83-10.88,9.74-21.73,14.73-32.55,6.44-13.98,13.1-27.87,19.37-41.93,1.54-3.45,3.22-3.99,6.28-2.36,1.75.93,3.63,1.6,5.41,2.49.84.42,1.95.75,1.64,2.29Z"/>
      <path class="cls-2" d="m248.2,215.15c-3.25-1.71-6.55-3.03-9.35-5.06-2.13-1.55-.08-3.68.66-5.25,3.62-7.65,7.47-15.2,11.25-22.78,3.33-6.69,6.8-13.31,9.96-20.09,1.38-2.95,3.14-3.32,5.91-2.25,8.68,3.37,8.69,3.33,4.63,11.43-6.84,13.66-13.66,27.34-20.55,40.97-.59,1.17-.61,3.07-2.52,3.02Z"/>
      <path class="cls-2" d="m267.93,280.19c-.43.89-.85,1.79-1.29,2.67-3.19,6.36-6.48,12.67-9.52,19.1-1.16,2.44-1.94,3.47-4.93,1.92-8.85-4.61-8.95-4.44-4.32-13.59,2.55-5.02,5.14-10.01,7.7-15.03.22-.43.27-1.33.45-1.34,3.51-.29,5.97,2.28,8.93,3.49,1.17.48,3.11.63,2.98,2.77Z"/>
      <path class="cls-2" d="m242.49,228.51c-.26.57-.5,1.18-.8,1.77-3.56,7.12-7.21,14.21-10.66,21.38-1.01,2.09-2.06,2.13-3.85,1.12-9.31-5.27-10.56-1.93-4.95-13.65,2.43-5.07,5.87-9.62,7.59-15.04.24-.76.76-1.94,1.56-1.6,3.64,1.57,7.18,3.37,10.74,5.13.21.1.24.56.37.89Z"/>
      <path class="cls-2" d="m334,65.17c14.06-.01,24.57,11.34,24.48,26.44-.09,13.81-11.21,24.58-25.35,24.54-14.1-.03-25.41-11.21-25.45-25.18-.05-14.71,11.26-25.79,26.33-25.8Zm-.84,38.15c7.08.02,12.69-5.45,12.73-12.4.04-7.77-4.77-12.56-12.68-12.58-7.95-.03-12.87,4.67-12.93,12.33-.05,7.29,5.37,12.63,12.87,12.65Z"/>
      <path class="cls-1" d="m333.15,103.32c-7.5-.02-12.92-5.35-12.87-12.65.06-7.66,4.98-12.36,12.93-12.33,7.91.03,12.72,4.81,12.68,12.58-.04,6.95-5.66,12.42-12.73,12.4Z"/>
    </g>
  </g>
</svg>