<?xml version="1.0" encoding="UTF-8"?>
<svg id="Layer_2" data-name="Layer 2" xmlns="http://www.w3.org/2000/svg" viewBox="0 0 345.6 130.66">
  <defs>
    <style>
      .cls-1 {
        fill: #f7f4f6;
      }

      .cls-1, .cls-2, .cls-3, .cls-4, .cls-5, .cls-6, .cls-7, .cls-8, .cls-9, .cls-10, .cls-11, .cls-12, .cls-13, .cls-14, .cls-15, .cls-16, .cls-17, .cls-18, .cls-19, .cls-20, .cls-21, .cls-22, .cls-23, .cls-24, .cls-25, .cls-26, .cls-27, .cls-28 {
        stroke-width: 0px;
      }

      .cls-2 {
        fill: #f7f5f8;
      }

      .cls-3 {
        fill: #f6f3f9;
      }

      .cls-4 {
        fill: #f9def9;
      }

      .cls-5 {
        fill: #632c91;
      }

      .cls-6 {
        fill: #522b5b;
      }

      .cls-7 {
        fill: #785384;
      }

      .cls-8 {
        fill: #5a0e79;
      }

      .cls-9 {
        fill: #a385ad;
      }

      .cls-10 {
        fill: #391242;
      }

      .cls-11 {
        fill: #401747;
      }

      .cls-12 {
        fill: #401849;
      }

      .cls-13 {
        fill: #e2ccec;
      }

      .cls-14 {
        fill: #ddc4e7;
      }

      .cls-15 {
        fill: #e1c9e2;
      }

      .cls-16 {
        fill: #c895e5;
      }

      .cls-17 {
        fill: #d7bee2;
      }

      .cls-18 {
        fill: #ba8cd5;
      }

      .cls-19 {
        fill: #edd6f7;
      }

      .cls-20 {
        fill: #edd7f7;
      }

      .cls-21 {
        fill: #e9dcf0;
      }

      .cls-22 {
        fill: #faf8fa;
      }

      .cls-23 {
        fill: #faf9f9;
      }

      .cls-24 {
        fill: #fbfafa;
      }

      .cls-25 {
        fill: #fbf9fa;
      }

      .cls-26 {
        fill: #fefefe;
      }

      .cls-27 {
        fill: #f1b7fa;
      }

      .cls-28 {
        fill: #f5f0f7;
      }
    </style>
  </defs>
  <g id="Layer_1-2" data-name="Layer 1">
    <path class="cls-27" d="m0,0v70.18h0c0,20.16,0,40.32,0,60.48h65.51c1.89-.52,3.56-1.62,5.43-2.18,4.27-1.27,7-3.99,8.07-8.35.31-1.27,1.06-2.29,1.99-3.22,1.39-1.4,3.1-2.23,4.82-3.08,2.57-1.27,4.95-2.77,6.62-5.2.9-1.31.92-1.3,2.44-.74.64.23,1.26.51,1.9.74,1.03.37,2.09.54,3.18.35,1.17-.2,2.23-.71,2.6-1.87.45-1.4.81-2.82,1.6-4.09.21-.34.13-.78.02-1.17-.12-.42-.11-.77.27-1.07.83-.66.9-1.52.66-2.49-.37-1.52-.24-1.74,1.18-2.42,1.91-.91,2.12-1.52,1.2-3.48-.9-1.92-2.02-3.72-2.93-5.64-.65-1.37-1.34-2.73-1.2-4.33.03-.37-.1-.71-.4-.96-.24.1-.38.23-.48.38.17-.58.38-1.16.36-1.74.31.36-.62,1.1.34,1.4.62-.45.64-1.14.73-1.8.12-.92-.1-1.82-.24-2.71-.33-2.1-.57-4.24-1.76-6.09-.31-.24-.63-.21-.97-.09-.49.15-.98.47-1.47.43-1.49-.14-2.7.32-3.65,1.47-.64.57-1.42.82-2.23,1.05-1.45.41-2.88.88-3.99,1.98-.71.98-1.16,2.1-1.75,3.14-.05.1-.09.21-.12.32-.56,1.28-1.01,2.6-1.61,3.86-.22.87-.65,1.61-1.37,2.16-.13.1-.24.22-.33.36-.51.69-1.22,1.01-2.05,1.09-.64.12-1.26.06-1.89-.09-1.23-.3-2.22-1.06-3.28-1.68-1.41-.83-2.85-1.11-4.27-.1-1.39.98-1.54,2.44-1.3,3.97.41,2.68,1.78,4.86,3.77,6.61.71.62.6.84.02,1.39-1.2,1.13-1.85,2.49-1.32,4.19.66.89.24,1.59-.42,2.19-.84.77-1.25,1.64-.85,2.77.05.46.21.92-.09,1.36-.12.25-.28.5-.54.62-1.05.48-1.74,1.32-2.46,2.19-.83,1.02-1.92,1.81-3.22,2.16-2.76.74-5.05-.37-7.22-1.9-.8-.47-1.66-.75-2.6-.8-.91-.04-1.83.07-2.74-.06-1.5-.47-2.52-1.39-3.07-2.9-.7-1.96-.33-3.82.35-5.67.43-1.63.14-3.37.8-4.96.06-.11.1-.22.14-.34.36-1.27,1.11-2.31,2.33-2.72,1.43-.48,2.81-1.13,4.3-1.43.83-.21,1.67-.28,2.54-.24.66.03,1.43-.04,1.11-1.1-.49-.56-1.25-.91-1.44-1.72-1.15-1.94-1.6-4.03-1.52-6.3.07-1.98.64-3.84.99-5.76.45-2.42,1.61-4.43,3.26-6.18h178.58c.07.14.17.27.34.35.13.02.25,0,.36-.07.08-.1.16-.19.24-.29h41.93c1.69,1.83,2.32,4.13,2.52,6.61.22,2.78-.36,5.5-.86,8.2-.92,5.01-.73,9.93.68,14.82.86,2.98,2.35,5.68,3.65,8.46,1.63,3.48.28,6.77-3.34,8.01-3.39,1.16-6.71.79-9.84-.9-1.94-1.05-3.91-1.3-6.02-.66-.63.19-1.41.66-1.93.12-.54-.57-.05-1.36.12-2.04.3-1.2.53-1.33,1.78-1.16,1.86.25,3.71.54,5.58.74,3.02.33,4.5-1.2,4-4.14-.13-.76-.18-1.49.2-2.22.4-.77.54-1.59.1-2.41-.14-.27-.17-.45.13-.7,1.44-1.21,1.42-1.23.57-2.81-.56-1.03-.36-2.06.5-2.66,1.8-1.26,1.99-2.14.74-3.93-1.09-1.55-1.97-3.19-2.55-5-.24-.75-.33-1.5-.1-2.24.96-3.2.85-6.47.56-9.74-.19-2.12-1.38-3.35-3.5-3.63-1.68-.22-3.26.1-4.67,1.1-1.05.75-2.06,1.57-2.78,2.63-2.19,3.23-4.96,5.78-8.26,7.88-2.21,1.41-3.71,3.51-4.22,6.17-.45,2.34-.44,4.68.07,7.02.79,3.66,2.5,6.99,3.77,10.48,1.1,3.02,2.06,6.07,1.37,9.35-.65,3.11-3.06,6.63-7.1,6.69-.4,0-.8.08-1.1.4-.09.19-.11.4-.04.58.5,1.46.47,2.89-.18,4.31-.17.37-.2.77.03,1.15h90.47v-1.18c0-19.77,0-39.53.01-59.3h.02V0H0Zm102.35,82.41c0,.34.1.68.02.95-.08-.32-.07-.63-.02-.95Z"/>
    <path class="cls-15" d="m140.1,65.46c-.07-.14-.12-.3-.22-.42-1.2-1.36-1.19-1.43.24-2.58,2.35-1.88,5.03-1.96,7.83-1.54,1.1.17,2.19.37,3.32.32,2.58-.11,4.22-1.69,5.36-3.72,3.02-5.41,9.25-6.6,14.69-4.01,1.86.89,3.46,2.13,4.86,3.63,1.21,1.29,2.55,1.99,4.46,1.61,2.12-.42,4.38,1.52,4.6,3.75.08.78.21.87,1,.67,2.29-.6,4.33-.04,5.74,1.92,1.11,1.54,2.35,2.57,4.38,2.24,1.03-.17,1.66.63,2.39,1.13.7-.08.98.45,1.27.91.68,1.09,1.08,2.3,1.31,3.57.2,1.14.45,2.26.76,3.37.53,1.85,1.7,3.01,3.58,3.47,1.21.29,2.37.69,3.37,1.48,1.11.88,2.02,1.92,2.49,3.29.13.6.34,1.19.24,1.81-.23.86-.38,1.72-.07,2.6.17.59.02,1.15-.15,1.71-.01.12-.04.23-.09.34-.36.54-.51,1.17-.72,1.77-.3.57-.57,1.14-.82,1.73-.65,1.52-.47,2.97.37,4.35.48.78,1.03,1.52,1.64,2.21,1.31,1.47,1.69,3.16,1.38,5.09-.31,1.94-.69,3.84-1.69,5.56-.81,1.15-.76,2.96.13,4.19.86,1.08,1.71,2.17,2.58,3.24.54.67,1.08,1.37,1.07,2.31,0,.71,0,1.42,0,2.13-.06.99-.58,1.8-1.08,2.59-.69,1.07-1.09,2.18-.93,3.46.05.36.01.71-.26.99h-33.12c-1.81-1.05-2.28-2.86-2.37-4.71-.19-3.9.24-7.73,1.72-11.4.53-1.31,1.24-2.5,2.16-3.57,1.09-1.26,2.45-1.86,4.1-1.92,1.53-.06,3.04.08,4.53.36,1.15.22,2.23-.01,3.28-.42,1.06-.41,1.47-1.16,1.21-2.28-.31-1.39-.32-2.69.56-3.89.24-.33.31-.73.21-1.14-.1-.44-.16-.93.14-1.27.74-.87.7-1.79.43-2.81-.22-.84.05-1.55.69-2.16.91-.88.91-1.1.14-2.11-1.27-1.67-2.3-3.45-2.86-5.49-.39-1.43-.42-2.85.18-4.23.54-1.23.56-2.45.22-3.74-.77-2.86-1.94-5.53-3.99-7.69-1.88-1.98-4.35-2.92-7.06-3.16-1.15-.1-2.31-.02-3.45.28-3.01.78-4.63,2.62-4.84,6.3-.16,2.83-.03,5.67-.03,8.51,0,1.26-.27,2.46-.82,3.59-.9,1.86-2.68,2.8-4.73,2.54-2.26-.29-3.22.61-3.35,2.9-.11,1.91.86,3.37,1.75,4.87.82,1.38,1.65,2.74,1.83,4.38.21,1.86-.26,3.57-1.21,5.16-.88,1.47-.85,2.94-.19,4.47.52,1.21,1.08,2.41,1.25,3.74.21,1.63-.41,2.9-1.85,3.71-.91.51-1.91.81-2.91,1.11-2.4.73-2.83,1.29-3,3.8-.05.68-.16,1.35-.31,2.01-.38,1.65-1.69,2.27-3.16,2.53-1.67.3-3.24.81-4.68,1.72h-15.6c-.37-.32-.42-.75-.38-1.2.38-4.44,2.29-7.88,6.36-10.01,1.97-1.04,4.06-1.86,5.93-3.11,1.9-1.28,3.37-2.9,4.41-4.94.23-.46.47-.92.79-1.34.41-.37.51-.84.46-1.37.01-.37.1-.71.24-1.05.77-1.3.79-2.59-.03-3.87-.42-.94-.77-1.9-.99-2.91-.03-.53-.23-1-.46-1.47-1.08-2.26-1.58-4.63-1.58-7.14,0-2.1.24-4.21-.2-6.3-.03-.12-.04-.25-.04-.38.08-1.01-.02-1.97-.69-2.79-1.03-1.77-2.37-3.29-3.8-4.76-1.77-1.82-2.98-4.04-4.1-6.3-.84-1.69-1.84-3.27-3.06-4.71-.38-.44-.86-.87-.73-1.56Z"/>
    <path class="cls-8" d="m156.12,107.84c-.25.26-.19.57-.16.88-.11.53-.14,1.08-.49,1.54-1.8,4.21-5.05,6.84-9.18,8.54-.55.23-1.07.54-1.61.79-4.7,2.2-6.59,6.1-6.69,11.07h-23.28c-.29-.54-.02-1.02.19-1.48,2.01-4.4,4.02-8.79,7.04-12.63,1.92-2.45,3.48-5.17,5.46-7.59.91-1.12,1.94-2.13,2.98-3.11,1.41-1.32,3.09-1.78,4.98-1.49.99.15,1.96.38,2.9.75,1.96.77,4.04.95,6.08,1.29.6.1,1.19,0,1.77-.19,1.77-.57,2.4-1.68,1.72-3.4-.58-1.47-.57-2.78.42-4.06.37-.48.42-1.02.1-1.57-.3-.51-.39-1.08-.13-1.61.39-.83.09-1.46-.44-2.07-.23-.27-.45-.56-.64-.86-.83-1.32-.69-2.23.52-3.25,1.99-1.68,2.04-2.01-.14-3.47-2.62-1.76-4.12-4.08-4.17-7.25-.08-4.63-2.52-7.95-5.88-10.78-.92-.77-1.87-1.5-2.84-2.21-1.08-.78-1.86-.75-2.92.1-1.57,1.26-2.38,2.99-2.89,4.87-.95,3.52-2.15,6.94-3.47,10.33-.44,1.12-.9,2.23-1.65,3.18-1.04,1.32-2.26,1.51-3.68.6-2.01-1.28-4.06-.51-4.8,1.81-.51,1.6-.19,3.17.3,4.7.38,1.19,1.01,2.26,1.72,3.28.32.47.7.85,1.23,1.1,1.55.74,1.95,1.54,1.44,3.18-.81,2.6-2,5.05-3.3,7.44-1.95,3.58-4.82,6.33-7.95,8.86-1.03.83-2.03,1.68-2.99,2.59-2.1,1.98-3.43,4.39-4.18,7.15-.41,1.5-.83,3-1.4,4.46-.21.53-.47,1.01-.95,1.35h-33.6c.71-.81,1.72-1.13,2.65-1.56,1.12-.52,2.27-.99,3.44-1.38,3.54-1.18,5.85-3.5,6.75-7.15.68-2.76,2.45-4.61,4.86-5.93,1.36-.75,2.76-1.45,4.14-2.17,2.15-1.11,3.9-2.65,5.09-4.76.43-.75.89-.91,1.65-.6.89.37,1.79.68,2.69,1.02.99.38,2,.57,3.05.43,1.54-.2,2.61-1.25,2.68-2.76.04-.89.33-1.61.89-2.28.5-.6.92-1.23.1-1.97-.56-.5,0-.78.38-.95,1.02-.46,1.14-1.16.78-2.16-.64-1.78-.36-2.31,1.41-3.01,1.8-.71,1.91-.92,1.07-2.61-.97-1.97-2.02-3.9-3.04-5.84-.9-1.72-1.61-3.49-1.14-5.49v.03c.52-1.05.44-2.17.33-3.27-.21-2.18-.6-4.33-1.41-6.39-.11-.29-.13-.61-.19-.92-.09-.18-.04-.34.06-.49.8-.64,1-1.43.64-2.39-.1-.25-.17-.53.04-.77-.1-.43.02-.74.37-1.04,3.78-3.17,7.66-6.23,12.55-7.47,8.82-2.24,16.66-.24,23.54,5.69.39.33.66.81,1.18.98,2.16,2.29,3.7,4.97,5.09,7.76.8,1.61,1.78,3.12,3.06,4.4,1.47,1.47,2.86,2.98,3.83,4.84.63.95.54,2.08.76,3.14l-.02-.03c.33.38.13.84.15,1.26.13,2.82-.22,5.65.23,8.46.24,1.51.8,2.9,1.44,4.27.22.47.46.92.59,1.43.32.86.63,1.72.95,2.58.35,1.43.5,2.86-.08,4.27Z"/>
    <path class="cls-5" d="m215.03,121.3c-.37-1.23-1.28-2.09-2.06-3.05-.53-.65-1.01-1.33-1.52-1.99-.86-1.56-.87-3.15-.21-4.77.89-1.83,1.56-3.74,1.75-5.78.16-1.71-.26-3.23-1.51-4.47-.39-.39-.75-.82-1.09-1.27-1.85-2.48-1.84-4.62.03-7.47.51-.44.45-1.14.77-1.66h0c.57-1.48.55-4.92-.04-6.22-1.22-2.45-3.15-3.94-5.87-4.45-1.76-.33-2.86-1.46-3.47-3.13-.48-1.33-.69-2.7-.96-4.08-.33-1.66-.79-3.26-2.08-4.48-.38-.48-.23-.9.08-1.38,1.54-2.4,3.59-4.21,6.12-5.49,1.66-.75,3.44-.83,5.21-.98,2.97-.26,5.95-.43,8.94-.39,1.14.01,2.27-.33,3.41-.49,4.34-.62,8.45.11,12.42,1.87,1.08.58,2.21,1.09,3.24,1.75,2.58,1.64,4.22,3.92,4.48,7.06.19.32.22.61-.15.83-.67,0-.92-.56-1.26-.99-1.81-2.31-3.66-2.42-5.73-.36-1.27,1.26-2.09,2.82-2.9,4.37-3.26,6.28-5.68,12.87-6.64,19.9-.78,5.71,1.06,10.02,5.92,13.29,1.52,1.02,3.04,2.08,4.98,2.22.68.05,1.16.5,1.49,1.08,1.44,2.57,3.9,4.04,6.18,5.69,3.1,2.24,6.33,4.29,9.49,6.43.63.43,1.44.78,1.35,1.78,1.39,2.07.67,4.05-.29,6.01h-42c-.55-1.67-.36-3.2.72-4.64.52-.7.94-1.48,1.19-2.34.23-.79.2-1.59.02-2.39Z"/>
    <path class="cls-27" d="m99.12,130.66c.77-2.44,1.51-4.88,2.3-7.31,1.12-3.4,3.41-5.97,6.22-8.02,5.4-3.91,9.03-9.08,11.35-15.25.24-.63.45-1.28.6-1.94.22-.99-.05-1.75-1.15-2-.76-.17-1.24-.7-1.64-1.31-1.19-1.79-2.04-3.71-2.28-5.86-.17-1.53.09-2.95,1.11-4.16,1.25-1.49,3.01-1.69,4.54-.52,1.27.96,2.17.86,3.15-.41,1.07-1.38,1.54-3.06,2.19-4.64,1.27-3.11,2.16-6.35,3.12-9.56.52-1.72,1.36-3.24,2.81-4.37,1.27-.99,2.13-.94,3.44,0,2.11,1.51,4.12,3.14,5.82,5.12,1.81,2.1,2.97,4.54,3,7.29.04,3.72,1.62,6.35,4.72,8.3,1.82,1.15,1.71,2.3-.1,3.45-1.61,1.02-1.73,1.74-.57,3.29.36.48.76.93,1.08,1.43.55.87-.58,1.49-.44,2.2.14.67,1.05,1.14.64,2.02-.13.29-.27.6-.49.82-.95.94-.84,1.94-.38,3.08,1.1,2.68-.11,4.49-3.06,4.53-1.97.03-3.89-.35-5.78-.89-1.19-.34-2.37-.71-3.57-1.01-2.07-.51-3.82.06-5.4,1.5-2.75,2.52-4.55,5.75-6.81,8.64-3.73,4.77-6.38,10.12-8.84,15.59h-15.6Z"/>
    <path class="cls-27" d="m153.59,130.66c.61-1.35,1.89-1.61,3.14-1.9.97-.23,1.97-.31,2.89-.75.86-.42,1.36-1.06,1.43-2.04.04-.56.23-1.11.19-1.66-.2-2.93,1.4-3.59,3.35-4.2.92-.29,1.84-.53,2.7-.97,1.47-.76,1.97-1.81,1.71-3.43-.19-1.2-.7-2.29-1.18-3.38-.75-1.71-.84-3.36.19-5.02,1.8-2.9,1.53-5.74-.31-8.54-1.18-1.8-2.35-3.59-2.15-5.95.2-2.35,1.49-3.48,3.82-3.08,1.9.33,3.52-.47,4.34-2.2.5-1.06.77-2.18.77-3.36,0-2.96-.12-5.92.03-8.87.13-2.6,1.11-4.88,3.7-5.97,3.03-1.29,6.07-1.08,9.08.19,4.21,1.77,5.94,5.46,7.31,9.42.61,1.75.69,3.44-.14,5.22-.78,1.66-.21,3.39.44,4.99.6,1.48,1.44,2.85,2.48,4.08.88,1.04.84,1.74-.29,2.47-.81.52-.91,1.12-.63,1.93.36,1.06.6,2.11-.55,2.89-.28.19-.29.47-.12.74.44.73.27,1.39-.24,1.98-.77.88-.77,1.85-.5,2.92.53,2.04-.23,3.12-2.31,3.62-1.37.33-2.71.16-4.03-.08-1.16-.21-2.31-.22-3.46-.15-2.87.19-4.17,2.32-5.19,4.57-1.7,3.74-2.1,7.75-1.98,11.82.05,1.81,1.01,3.24,1.92,4.7h-26.4Z"/>
    <path class="cls-4" d="m255.39,124.65c-1.73-1.88-4.04-2.96-6.1-4.39-2.78-1.93-5.61-3.8-8.28-5.9-1.19-.94-2.32-1.96-2.97-3.38-.35-1.19.57-1.14,1.25-1.18,1.19-.07,2.08-.47,2.48-1.68.2-.61.07-1.2-.12-1.76-.43-1.26-.38-2.42.54-3.48.4-.46.47-.98.14-1.55-.33-.58-.28-1.19.18-1.67.53-.56.33-1.06.04-1.63-.79-1.54-.6-2.38.98-3.11,2.08-.96,2.1-2.23.94-3.93-1.01-1.49-2.06-2.95-2.97-4.5-1.04-1.77-1.21-3.51-.14-5.32.86-1.44,1.13-3.08,1.24-4.71.13-1.9-.14-3.81.2-5.71-.06-.12-.04-.23.05-.33.02-.75.54-1.26,1-1.72,2.8-2.82,6.03-4.96,9.84-6.18,2.97-.95,5.77-.51,8.45.91.94.5,1.74.52,2.7.05,1.07-.53,2.22-.92,3.37-1.25,2.61-.75,5.01-.31,7.01,1.58,1.76,1.67,3.87,2.66,6.12,3.41,4.88,1.62,6.72,5.3,6.89,10.11.11,3.07-.6,6.03-1.07,9.02-.99,6.24-.02,12.16,2.59,17.86.57,1.23,1.25,2.42,1.82,3.65,2.06,4.41.06,8.5-5.27,9.35-3.27.52-6.33-.05-9.21-1.75-1.57-.93-3.29-.77-5-.26-2.84.84-3.14.54-2.49-2.27.44-1.91.65-2.03,2.62-1.74,1.81.27,3.63.52,5.46.73.54.06,1.13.01,1.66-.1,1.56-.34,2.21-1.24,1.85-2.79-.3-1.34-.4-2.53.37-3.78.57-.92-.16-1.64-.8-2.26.21-.34.57-.3.86-.39,1.26-.4,1.44-.99.62-2.04-1.06-1.36-.62-3.03.98-3.7,1.07-.45,1.29-1.57.44-2.68-1.28-1.67-2.22-3.5-2.92-5.47-.28-.79-.4-1.6-.15-2.35,1.04-3.16.86-6.38.64-9.61-.15-2.23-1.29-3.26-3.55-3.41-3.02-.2-5.03,1.55-6.59,3.71-2.26,3.12-4.93,5.69-8.18,7.78-4.21,2.71-4.93,6.94-4.33,11.51.54,4.09,2.5,7.73,3.93,11.54,1.18,3.16,2.21,6.37,1.44,9.81-.84,3.78-3.49,7-7.63,7.05-.31,0-.63-.04-.94-.06Z"/>
    <path class="cls-26" d="m101.99,70.66c-.09.1-.18.19-.27.29-.23.08-.46.16-.69.24-1.06.07-2.08.37-3.18.3-.98-.06-1.27,1.04-1.84,1.65-.45.57-1.12.74-1.77.9-1.59.4-3.12.94-4.46,1.93-1.1.75-1.27,2-1.69,3.12h0c-1.22,1.1-1.16,2.76-1.82,4.11-.19.92-.82,1.6-1.33,2.35-.08.08-.16.16-.24.24-.62.58-1.48.73-2.15,1.22-1.6.53-2.98-.1-4.3-.89-.75-.45-1.45-.99-2.28-1.32-1.96-.77-3.9.48-4.02,2.58-.09,1.7.48,3.24,1.3,4.67.54.93,1.25,1.76,1.93,2.6.47.59,1.03,1.1,2,.96-1.64,1.48-3.36,2.77-2.78,5.25.59.95.27,1.64-.5,2.35-1.28,1.18-1.29,1.41-.71,2.73.24.48.41.96.01,1.44-.29.34-.66.52-1.1.64-.99.25-1.83.74-2.26,1.75-.17.41-.48.75-.87.95-.64.33-1.1.86-1.65,1.29-1.25.98-2.73.7-4.19.36-1.4-.33-2.61-1.07-3.91-1.61-1.29-.68-2.67-.89-4.11-.76-.46.04-.95.07-1.37-.22-.71-.48-1.09-1.3-1.94-1.69-1.03-.47-1.7-3.71-1.09-4.69.09-.14.24-.2.4-.09.22.52.28,1.07.34,1.48-.1-.43-.07-1.03-.4-1.54-.48-.49-.56-1.06-.19-1.62.29-.43.3-.89.29-1.36.3-1.55.06-3.17.65-4.67h0c.61-1.38,1.39-2.67,2.9-3.11,1.1-.32,2.16-.7,3.23-1.09.23-.08.43-.2.61-.36.95-.39,1.92-.44,2.92-.28.38.06,1.16.31.67-.64-.54-.42-1.03-.9-1.45-1.45-1.78-2.38-1.96-5.13-1.61-7.9.34-2.65.92-5.27,1.96-7.76.25-.6.58-1.14,1-1.62,1.29-1.47,2.59-2.93,3.66-4.58.81-1.24,1.99-2.02,3.44-2.45,1.49-.44,3.01-.82,4.23-1.87.9-.54,1.63-1.37,2.72-1.59,3.37-1.08,6.84-.73,10.28-.72,1.05,0,2.14-.02,3.16.4,2.95,1.38,6.04,2.38,9.12,3.43,1.25.43,2.32,1.21,3.1,2.32.15.35.23.73.44,1.07.82,1.28.76,2.03-.22,3.24Z"/>
    <path class="cls-23" d="m59.24,110.78c.39-.17.76-.42,1.22-.31.12.41-.42.15-.41.54,1.88.65,3.72,1.54,5.84,1.43.73-.04,1.14-.32,1.43-.95.1-.22-.05-.53.48-.67.87-.24,1.61-.72,1.94-1.85.22-.76,1.28-1.27,2.24-1.27.47,0,.85-.14,1.24-.31,0,.04,0,.1-.03.11-1.96,1.17-3.14,3.22-5.06,4.45-2.02,1.29-4.11,1.07-6.19.3-.96-.35-1.94-.73-2.7-1.48Z"/>
    <path class="cls-25" d="m89.55,60.6c-.49.55-.97-.03-1.46,0-2.54.14-5.09-.18-7.63.19-.31.04-.52-.14-.78-.23-.69-.24-1.4-.47-1.91.35-.48.78-1.16-.2-1.69.19-.16-.08-.16-.18-.02-.28,2.14-1.04,4.49-.87,6.75-1.11,1.85-.19,3.72-.1,5.55.38.42.11.85.19,1.18.51Z"/>
    <path class="cls-18" d="m234.93,61.6c-1.87-.55-3.7-1.25-5.64-1.57-2.58-.43-5.12-.65-7.71,0-2.74.69-5.57.21-8.34.49-2.77.28-5.58.29-8.29,1.07.56-.63,1.36-.62,2.09-.74,3.62-.61,7.28-.81,10.94-.71,1.51.04,2.92-.4,4.37-.58,4.14-.53,8.09.08,11.97,1.51.28.1.5.25.61.52Z"/>
    <path class="cls-24" d="m51.12,103.31c-.79,1.66-.02,3.04.78,4.41.04.07.1.21.11.2,1.16-.4.86,1.23,1.76,1.26.25,0,.05.4-.02.62-2.03-.54-3.13-1.99-3.51-3.93-.33-1.68-.21-3.39.63-4.97.23-.09.03-.63.5-.48.17.33.36.72.07,1-.61.58-.28,1.25-.3,1.88Z"/>
    <path class="cls-22" d="m86.16,83.16c.55-1.28.31-2.73.88-4.11.39,1.3.7.12,1.06.04-.38,1.43-.99,2.77-1.68,4.08-.1.13-.18.13-.27-.01Z"/>
    <path class="cls-3" d="m58.56,91.06c-.9.92-2.15,1.17-3.3,1.51-1.48.45-2.57,1.17-2.88,2.77-.07.36-.34.26-.56.28.3-1.58,1.28-2.69,2.72-3.16,1.35-.44,2.65-1.01,4.01-1.39Z"/>
    <path class="cls-22" d="m88.1,79.1c-.28-.91.25-1.63.6-2.39.06-.14.43-.16.34-.39-.13-.32-.24-.68.07-.84.4-.21.2.66.68.5-.56,1.04-1.12,2.08-1.69,3.12Z"/>
    <path class="cls-1" d="m96.02,73.14c.77-1.65,1.07-1.77,2.77-1.8.81-.02,1.79.05,2.25-1.16,0,.47,0,.74,0,1.01-.41.13-.84.41-1.24.37-1.58-.17-2.84.3-3.78,1.59Z"/>
    <path class="cls-1" d="m101.99,70.66c.35-1.07,1.11-2.12-.03-3.19-.28-.27-.35-.7-.19-1.11.39.2.26.78.7.95.84,1.76.73,2.59-.48,3.36Z"/>
    <path class="cls-28" d="m73.21,105.95c-.74-.92-.71-1.66.37-2.62.79-.71,1.16-1.43.84-2.46.86.88.52,1.66-.28,2.3-.94.75-1.31,1.62-.93,2.78Z"/>
    <path class="cls-27" d="m102.99,81.5c-.91.9-.4,2-.51,3.02-.6-1.81.08-3.56.5-5.33,0,.78,0,1.55,0,2.33,0,0,0-.03,0-.03Z"/>
    <path class="cls-3" d="m51.36,100.43c-.17.16-.33.32-.5.48.17-1.37.33-2.73.5-4.1.05-.43.11-.87.45-1.19-.15,1.6-.31,3.21-.46,4.81Z"/>
    <path class="cls-2" d="m82.57,87.02c.2-1.05,1.35-.85,1.89-1.45.09.08.17.16.26.23-.49.8-1.28,1.08-2.15,1.22Z"/>
    <path class="cls-28" d="m76.06,60.81c0,.09.01.19.02.28-1.02.24-1.67,1.17-2.69,1.42.73-.81,1.55-1.5,2.67-1.7Z"/>
    <path class="cls-2" d="m86.16,83.16c.09,0,.18,0,.27.01-.18.99-.64,1.8-1.47,2.39.4-.8.8-1.6,1.2-2.4Z"/>
    <path class="cls-21" d="m60.7,88.69c.59.37,1.08.85,1.45,1.45-.73-.24-1.2-.73-1.45-1.45Z"/>
    <path class="cls-7" d="m242.84,70.42c.02.09.04.19.05.28.17.46.06.91.06,1.56-.62-.31-.88-.56-.55-1.11.09-.25.17-.5.26-.75.06.02.12.02.18.02Z"/>
    <path class="cls-13" d="m155.25,100.99c-1.39-2.37-2.36-4.87-2.4-7.66-.04-2.59-.01-5.18-.01-7.76.44.42.26.97.28,1.47.13,3.05-.31,6.12.46,9.15.3,1.17.76,2.26,1.25,3.34.21.47.5.91.43,1.46Z"/>
    <path class="cls-6" d="m211.14,84.62c1.08,1.47,1.11,4.58.04,6.22,0-.65.42-1.24.28-1.91-.09-.81-.03-1.61,0-2.42.15-.67-.31-1.24-.31-1.89Z"/>
    <path class="cls-14" d="m156.12,107.84c.27-1.42.18-2.85.08-4.27.69,1.44.84,2.87-.08,4.27Z"/>
    <path class="cls-17" d="m211.24,111.49c-.44,1.61-.38,3.21.21,4.77-.98-1.07-1.09-3.6-.21-4.77Z"/>
    <path class="cls-19" d="m211.46,86.51c.25.81.24,1.61,0,2.42-.19.03-.52.07-.44-.15.29-.74-.08-1.59.44-2.27Z"/>
    <path class="cls-13" d="m152.85,85.6c-.25-1.05-.5-2.09-.76-3.14.86.9.79,2.02.76,3.14Z"/>
    <path class="cls-9" d="m215.03,121.3c.43.8.43,1.59-.02,2.39,0-.8.01-1.59.02-2.39Z"/>
    <path class="cls-6" d="m211.18,90.84c-.07.64-.09,1.3-.77,1.66.14-.61.41-1.16.77-1.66Z"/>
    <path class="cls-14" d="m155.47,110.26c.04-.55.23-1.05.49-1.54.06.58.05,1.14-.49,1.54Z"/>
    <path class="cls-20" d="m214.68,122.44c-.22-.25-.13-.51-.08-.78.31.24.2.5.08.78Z"/>
    <path class="cls-27" d="m242.4,71.16c0,.28.02.55.4.71.03-.41.06-.79.09-1.16.19,3.71.75,7.47-1.25,10.93-.76,1.31-.8,2.61-.08,3.98.97,1.85,2.22,3.5,3.38,5.22.4.6.75,1.21.81,1.97.07.94-.27,1.63-1.11,2.06-.39.2-.8.37-1.18.58-1.16.62-1.34,1.22-.54,2.29.64.86.9,1.59-.16,2.3-.4.27-.48.66-.09,1,.86.77.55,1.53-.1,2.17-.84.82-.85,1.7-.54,2.74.87,2.85-.08,4.2-3.01,4.31-.53.02-.97.05-.97.73-.32-.43-.58-.81-1.25-.92-6.22-.96-11.24-6.76-11.42-13.1-.1-3.65.85-7.12,1.83-10.58,1.42-5.02,3.53-9.75,6.07-14.31.53-.95,1.17-1.81,1.91-2.6,2.12-2.25,4.54-2.11,6.39.35.31.41.55.88.83,1.32Z"/>
    <path class="cls-11" d="m225.41,91.81c-.59,2.49-.19,5.03-.45,7.54.02-2.52-.43-5.07.45-7.54Z"/>
    <path class="cls-12" d="m213.19,107.26c.25-1.05.13-2.08.27-3.1.07,1.06.33,2.13-.27,3.1Z"/>
    <path class="cls-10" d="m215.7,121.46v1.86s-.08,0-.12,0v-1.86s.08,0,.12,0Z"/>
    <path class="cls-16" d="m117.74,83.89c.32.01.64.03,1.16.05-.54.23-.87.21-1.16-.05Z"/>
    <path class="cls-24" d="m51.13,103.3c.59.69.48,1.38.37,2.07-.21-.67-.45-1.33-.37-2.07Z"/>
  </g>
</svg>