<svg xmlns="http://www.w3.org/2000/svg" xmlns:xlink="http://www.w3.org/1999/xlink" viewBox="0 0 133 133"><g transform="translate(-0.007 0.015)" id="ss8955057235_1"><g id="ss8955057235_2"><path d="M 72.947 128.636 L 37.048 128.636 C 41.154 125.071 41.813 124.482 44.966 119.152 C 54.944 102.315 50.132 85.243 51.732 82.254 C 51.967 81.807 53.309 80.724 53.815 80.054 C 54.721 78.854 54.744 77.477 56.062 77.477 C 63.851 77.477 69.946 79.148 75.723 82.995 C 76.629 83.595 77.418 84.101 78.218 84.784 C 86.184 91.608 90.078 100.009 90.078 111.222 L 90.078 128.636 L 77.218 128.636 L 77.218 96.491 L 72.935 96.491 L 72.935 128.636 Z M 23.928 111.493 L 19.104 101.845 L 15.362 103.727 C 15.456 104.927 20.116 113.858 20.987 115.505 L 17.833 118.505 L 20.775 121.6 C 24.646 119.058 30.811 110.893 33.212 106.033 C 35.965 100.468 37.565 96.409 38.436 90.102 C 38.695 88.196 39.189 85.772 39.189 83.631 L 47.225 83.631 C 47.225 99.315 47.602 105.833 39.907 118.905 C 37.53 122.941 34.13 125.789 29.705 127.459 C 25.199 129.154 19.916 128.918 15.703 126.942 C 13.409 125.871 11.621 124.659 9.985 123.024 C 8.385 121.423 7.232 119.705 6.149 117.482 C 3.996 113.022 4.008 107.539 5.22 102.703 C 6.432 97.868 8.455 93.114 11.679 89.337 C 13.856 86.796 13.28 87.549 15.551 85.443 C 17.433 83.689 19.186 82.595 21.398 81.372 C 22.022 81.03 22.246 80.948 22.846 80.677 C 30.4 77.23 34.235 78.053 35.447 77.477 L 34.33 87.608 C 33.447 94.926 30.823 102.492 26.717 108.386 C 25.693 109.869 25.022 111.199 23.928 111.493 Z M 39.73 79.348 C 40.272 78.23 42.201 58.498 42.648 57.357 C 43.425 55.404 45.943 55.251 46.908 57.169 C 47.52 58.404 47.237 66.111 47.237 67.829 C 48.637 68.758 51.52 69.688 51.52 73.724 C 51.52 75.724 49.861 78.654 48.437 79.218 C 47.508 79.583 41.236 79.348 39.73 79.348 Z M 42.942 30.06 L 42.954 28.165 L 45.308 29.895 L 45.46 30.048 C 46.143 30.271 46.99 30.977 48.932 31.554 C 50.508 32.013 51.708 32.189 53.65 32.189 L 53.65 30.048 L 53.662 28.153 C 54.426 28.53 54.226 28.577 54.897 29.059 L 56.168 30.048 C 57.168 30.377 57.921 31.177 60.498 31.766 C 62.651 32.26 63.969 32.189 66.499 32.189 C 66.499 39.614 67.287 49.062 65.522 55.063 C 63.969 60.369 58.721 66.158 53.909 67.287 C 50.414 64.946 51.544 63.652 51.508 58.169 C 51.485 54.768 49.143 52.203 46.308 51.58 C 42.342 50.721 39.683 53.156 38.636 55.486 C 38.036 56.839 37.071 63.981 37.036 65.676 C 27.976 59.604 27.929 52.533 27.929 42.638 C 27.929 36.978 26.87 30.66 32.247 28.977 C 33.659 28.542 33.518 29.683 36.071 30.742 C 38.354 31.695 39.754 32.189 42.931 32.189 L 42.931 30.048 Z M 70.805 49.344 L 70.805 40.767 C 72.041 41.049 73.005 41.308 73.782 42.085 C 75.523 43.826 76.182 48.097 70.805 49.344 Z M 23.658 40.767 L 23.658 49.344 C 21.387 48.815 19.422 47.709 19.422 45.061 C 19.422 44.085 20.022 42.638 20.634 42.037 C 21.422 41.249 22.469 41.049 23.658 40.778 Z M 33.506 68.629 C 34.53 69.217 35.247 69.935 36.518 70.241 C 36.424 71.335 36.247 71.7 36.247 73.182 C 28.517 73.182 22.704 75.453 17.774 78.277 C 14.468 80.183 10.715 83.501 8.302 86.49 C 0.16 96.585 -3.829 113.199 4.984 123.988 C 7.538 127.118 9.526 128.801 13.291 130.683 C 15.88 131.978 19.045 132.931 22.846 132.919 L 94.373 132.919 C 94.373 124.706 94.338 116.482 94.373 108.269 C 94.432 97.303 88.584 87.996 81.183 81.548 C 77.018 77.912 72.111 75.712 66.816 74.218 C 63.745 73.359 61.757 73.335 58.745 73.182 C 57.521 73.123 57.286 72.912 55.803 72.912 C 55.803 70.688 55.521 71.841 60.945 68.629 L 63.981 65.817 C 67.287 62.463 69.334 58.769 70.37 53.721 C 73.5 53.192 74.523 53.298 76.547 51.321 C 82.477 45.52 78.547 36.872 70.805 36.484 L 70.805 27.906 C 66.899 27.906 62.851 28.318 59.509 26.871 C 55.862 25.294 54.862 22.6 53.391 20.658 L 49.649 22.423 C 50.732 25.094 52.05 26.177 53.344 27.836 C 50.696 27.848 48.531 26.859 46.778 25.671 C 44.249 23.953 43.801 22.164 42.672 20.658 L 38.93 22.423 C 39.977 25.047 41.331 26.224 42.625 27.836 C 39.024 27.871 35.824 26.012 33.718 23.459 C 33.035 22.623 32.659 21.611 31.953 20.658 L 28.211 22.423 L 29.647 25.212 L 29.129 25.6 C 27.646 26.647 26.246 27.636 25.187 29.436 C 23.858 31.707 23.646 33.554 23.646 36.484 C 18.774 36.731 14.95 40.249 15.092 45.32 C 15.174 48.191 16.315 49.744 17.774 51.191 C 19.916 53.309 20.728 53.133 24.081 53.721 C 25.093 58.816 27.129 62.346 30.305 65.711 L 33.494 68.617 Z" fill="rgb(0,0,0)"></path><path d="M 33.506 68.641 L 30.317 65.734 C 27.14 62.369 25.105 58.828 24.093 53.745 C 20.739 53.145 19.928 53.333 17.786 51.215 C 16.327 49.768 15.186 48.215 15.103 45.344 C 14.962 40.273 18.786 36.754 23.658 36.507 C 23.658 33.589 23.869 31.73 25.199 29.459 C 26.258 27.659 27.67 26.671 29.141 25.624 L 29.658 25.235 L 28.223 22.447 L 31.965 20.682 C 32.671 21.635 33.047 22.647 33.729 23.482 C 35.836 26.036 39.036 27.895 42.637 27.859 C 41.342 26.247 40.001 25.071 38.942 22.447 L 42.684 20.682 C 43.813 22.188 44.26 23.988 46.79 25.694 C 48.543 26.883 50.708 27.871 53.356 27.859 C 52.061 26.2 50.744 25.106 49.661 22.447 L 53.403 20.682 C 54.874 22.623 55.874 25.306 59.521 26.894 C 62.863 28.342 66.91 27.93 70.817 27.93 L 70.817 36.507 C 78.559 36.896 82.489 45.544 76.559 51.344 C 74.547 53.321 73.511 53.203 70.382 53.745 C 69.346 58.792 67.311 62.487 63.992 65.84 L 60.957 68.652 C 66.157 68.652 71.37 69.194 75.453 67.393 C 78.771 65.934 81.818 62.522 83.019 58.886 C 85.042 52.745 82.477 48.144 80.006 43.391 C 79.265 41.955 79.371 42.026 79.383 39.99 C 79.453 31.189 79.936 26.977 76.594 18.941 C 75.794 17.023 74.747 15.493 73.653 13.846 C 70.864 9.645 65.24 4.821 60.521 2.868 C 51.355 -0.932 43.319 -0.956 34.153 2.798 C 30.611 4.245 27.305 6.751 24.669 9.387 C 21.998 12.057 19.622 14.999 18.045 18.564 C 14.586 26.365 15.056 30.883 15.092 39.461 C 15.115 43.626 14.421 43.473 12.75 47.026 C 12.397 47.779 12.409 47.568 12.032 48.45 C 8.785 55.863 12.115 64.181 18.845 67.323 C 22.904 69.217 28.317 68.664 33.506 68.664 Z" fill="rgb(214,242,112)"></path><path d="M 90.09 22.835 C 90.09 19.882 92.643 17.211 96.256 17.211 L 122.506 17.211 C 126.248 17.211 128.672 20.176 128.672 22.565 L 126.507 33.789 C 125.683 37.931 125.777 41.155 121.859 42.543 C 117.87 43.944 116.435 41.261 113.599 44.191 L 106.892 50.909 C 106.222 51.474 105.092 51.65 105.092 50.415 L 105.092 42.92 C 100.892 42.92 96.432 43.614 94.208 40.673 C 92.82 38.837 91.314 29.071 90.69 25.977 C 90.525 25.141 90.09 23.494 90.09 22.823 Z M 85.807 21.764 C 85.807 26.565 87.631 33.331 88.596 38.261 C 89.184 41.249 89.714 42.414 91.502 44.202 C 94.667 47.367 96.915 47.215 100.809 47.215 L 100.809 50.968 C 100.809 54.098 103.339 55.792 106.704 55.792 C 108.469 55.792 110.069 53.898 111.058 52.909 C 116.635 47.32 115.47 47.179 119.835 47.226 C 124.001 47.262 127.413 45.203 129.131 41.779 C 129.872 40.296 130.284 37.743 130.66 35.813 C 131.566 31.271 132.955 26.306 132.955 21.776 C 132.955 17.717 128.166 12.94 124.118 12.94 L 94.655 12.94 C 92.467 12.94 89.867 14.634 88.69 15.811 C 87.513 16.987 85.819 19.588 85.819 21.776 Z" fill="rgb(0,0,0)"></path><path d="M 96.526 30.071 L 122.236 30.071 L 122.236 25.777 L 96.526 25.777 Z" fill="rgb(214,242,112)"></path><path d="M 96.526 25.777 L 122.236 25.777 L 122.236 21.494 L 96.526 21.494 Z M 122.236 30.071 L 96.526 30.071 L 96.526 34.354 L 122.236 34.354 Z M 55.274 45.061 C 57.356 45.061 59.156 44.673 60.557 43.12 C 61.533 42.037 62.239 40.626 62.239 38.637 L 57.956 38.637 C 57.297 41.473 54.332 41.473 53.673 38.637 L 49.39 38.637 C 49.39 42.39 52.332 45.061 55.285 45.061 Z M 38.13 45.061 C 42.272 45.061 45.096 42.708 45.096 38.637 L 40.813 38.637 C 40.154 41.473 37.189 41.473 36.53 38.637 L 32.247 38.637 C 32.247 42.39 35.188 45.061 38.142 45.061 Z M 55.803 100.786 L 68.664 100.786 L 68.664 96.491 L 55.803 96.491 Z" fill="rgb(0,0,0)"></path><path d="M 53.662 30.06 L 56.18 30.06 L 54.909 29.071 C 54.238 28.589 54.438 28.542 53.673 28.165 Z M 42.942 30.06 L 45.46 30.06 L 45.308 29.907 L 42.954 28.177 L 42.942 30.071 Z" fill="rgb(99,44,145)"></path></g></g></svg>